<?xml version="1.0" encoding="UTF-8" standalone="no"?><!DOCTYPE svg PUBLIC "-//W3C//DTD SVG 1.1//EN" "http://www.w3.org/Graphics/SVG/1.1/DTD/svg11.dtd"><svg width="100%" height="100%" viewBox="0 0 64 64" version="1.1" xmlns="http://www.w3.org/2000/svg" xmlns:xlink="http://www.w3.org/1999/xlink" xml:space="preserve" xmlns:serif="http://www.serif.com/" style="fill-rule:evenodd;clip-rule:evenodd;stroke-linejoin:round;stroke-miterlimit:2;"><g id="COMMUNICATION"><g id="Icons"><g id="Export"></g></g></g><g id="AV"><g id="Icons1" serif:id="Icons"><g id="Export1" serif:id="Export"></g></g></g><g id="ALERT"><g id="Icons2" serif:id="Icons"><g id="Export2" serif:id="Export"></g></g></g><g id="ACTION"><g id="Icons3" serif:id="Icons"><g id="Export3" serif:id="Export"><path id="star-Line-R" d="M32.286,0.02c0.242,0.052 0.308,0.052 0.536,0.154c0.341,0.152 0.637,0.4 0.846,0.71c0.139,0.206 0.151,0.271 0.244,0.501l6.633,20.414l21.466,0l0.278,0.02c0.091,0.019 0.184,0.032 0.274,0.058c0.715,0.205 1.289,0.832 1.42,1.578c0.113,0.642 -0.106,1.329 -0.581,1.788c-0.067,0.065 -0.143,0.12 -0.214,0.18l-17.366,12.617l6.633,20.415l0.068,0.271c0.01,0.092 0.026,0.185 0.029,0.278c0.029,0.835 -0.506,1.657 -1.317,1.952c-0.526,0.191 -1.13,0.15 -1.625,-0.114c-0.082,-0.044 -0.158,-0.099 -0.237,-0.148l-17.366,-12.617l-17.366,12.617l-0.237,0.148c-0.17,0.076 -0.342,0.152 -0.524,0.191c-0.728,0.155 -1.528,-0.129 -1.994,-0.726c-0.345,-0.441 -0.492,-1.029 -0.395,-1.581c0.017,-0.092 0.045,-0.181 0.068,-0.271l6.633,-20.415l-17.366,-12.617l-0.214,-0.18c-0.062,-0.069 -0.129,-0.134 -0.187,-0.207c-0.569,-0.729 -0.559,-1.853 0.09,-2.574c0.313,-0.347 0.748,-0.578 1.21,-0.643c0.092,-0.013 0.186,-0.013 0.279,-0.02l21.465,0l6.633,-20.414l0.105,-0.259c0.124,-0.215 0.145,-0.277 0.312,-0.463c0.25,-0.277 0.577,-0.482 0.936,-0.585c0.24,-0.068 0.305,-0.06 0.552,-0.077c0.093,0.006 0.186,0.013 0.279,0.019Zm0.406,43.699c0.255,0.114 0.256,0.114 0.492,0.262l13.556,9.849l-5.178,-15.936l-0.067,-0.271c-0.026,-0.247 -0.046,-0.309 -0.02,-0.558c0.039,-0.371 0.184,-0.729 0.414,-1.023c0.154,-0.197 0.211,-0.228 0.401,-0.388l13.556,-9.849l-16.756,0l-0.279,-0.019c-0.242,-0.051 -0.308,-0.052 -0.536,-0.154c-0.341,-0.152 -0.637,-0.4 -0.846,-0.709c-0.139,-0.207 -0.151,-0.272 -0.244,-0.502l-5.178,-15.935l-5.178,15.935l-0.104,0.26c-0.124,0.214 -0.145,0.276 -0.312,0.462c-0.25,0.277 -0.578,0.482 -0.937,0.585c-0.239,0.069 -0.305,0.06 -0.552,0.077l-16.756,0l13.556,9.849l0.214,0.18c0.166,0.184 0.219,0.223 0.343,0.439c0.187,0.324 0.281,0.698 0.268,1.072c-0.009,0.249 -0.037,0.309 -0.097,0.549l-5.178,15.936l13.556,-9.849l0.237,-0.148c0.085,-0.038 0.168,-0.082 0.255,-0.114c0.176,-0.064 0.359,-0.103 0.545,-0.116c0.249,-0.017 0.311,0.005 0.557,0.039c0.089,0.026 0.179,0.051 0.268,0.077Z" style="fill-rule:nonzero;"/></g></g></g></svg>